<svg width="30" height="27" viewBox="0 0 30 27" fill="none" xmlns="http://www.w3.org/2000/svg">
<path d="M0 6V3C0 2.175 0.29375 1.46875 0.88125 0.88125C1.46875 0.29375 2.175 0 3 0H27C27.825 0 28.5312 0.29375 29.1187 0.88125C29.7062 1.46875 30 2.175 30 3V6H27V3H3V6H0ZM9 27V24H3C2.175 24 1.46875 23.7062 0.88125 23.1187C0.29375 22.5312 0 21.825 0 21V18H3V21H27V18H30V21C30 21.825 29.7062 22.5312 29.1187 23.1187C28.5312 23.7062 27.825 24 27 24H21V27H9ZM4.2 12L8.1 8.1L6 6L0 12L6 18L8.1 15.9L4.2 12ZM25.8 12L21.9 15.9L24 18L30 12L24 6L21.9 8.1L25.8 12Z" fill="#DBE1FF"/>
</svg>
