<svg width="32" height="32" viewBox="0 0 32 32" fill="none" xmlns="http://www.w3.org/2000/svg">
<rect width="32" height="32" rx="4" fill="#0053DB"/>
<path d="M11.5 24.625C10.875 24.625 10.3438 24.4062 9.90625 23.9688C9.46875 23.5312 9.25 23 9.25 22.375C9.25 21.75 9.46875 21.2188 9.90625 20.7812C10.3438 20.3438 10.875 20.125 11.5 20.125C11.675 20.125 11.8375 20.1437 11.9875 20.1812C12.1375 20.2188 12.2812 20.2688 12.4187 20.3313L13.4875 19C13.1375 18.6125 12.8937 18.175 12.7562 17.6875C12.6188 17.2 12.5875 16.7125 12.6625 16.225L11.1438 15.7188C10.9313 16.0312 10.6625 16.2812 10.3375 16.4688C10.0125 16.6562 9.65 16.75 9.25 16.75C8.625 16.75 8.09375 16.5312 7.65625 16.0938C7.21875 15.6562 7 15.125 7 14.5C7 13.875 7.21875 13.3438 7.65625 12.9062C8.09375 12.4688 8.625 12.25 9.25 12.25C9.875 12.25 10.4062 12.4688 10.8438 12.9062C11.2812 13.3438 11.5 13.875 11.5 14.5C11.5 14.525 11.5 14.55 11.5 14.575C11.5 14.6 11.5 14.625 11.5 14.65L13.0188 15.175C13.2688 14.725 13.6031 14.3438 14.0219 14.0312C14.4406 13.7188 14.9125 13.5188 15.4375 13.4313V11.8C14.95 11.6625 14.5469 11.3969 14.2281 11.0031C13.9094 10.6094 13.75 10.15 13.75 9.625C13.75 9 13.9688 8.46875 14.4062 8.03125C14.8438 7.59375 15.375 7.375 16 7.375C16.625 7.375 17.1562 7.59375 17.5938 8.03125C18.0312 8.46875 18.25 9 18.25 9.625C18.25 10.15 18.0875 10.6094 17.7625 11.0031C17.4375 11.3969 17.0375 11.6625 16.5625 11.8V13.4313C17.0875 13.5188 17.5594 13.7188 17.9781 14.0312C18.3969 14.3438 18.7312 14.725 18.9812 15.175L20.5 14.65C20.5 14.625 20.5 14.6 20.5 14.575C20.5 14.55 20.5 14.525 20.5 14.5C20.5 13.875 20.7188 13.3438 21.1562 12.9062C21.5938 12.4688 22.125 12.25 22.75 12.25C23.375 12.25 23.9062 12.4688 24.3438 12.9062C24.7812 13.3438 25 13.875 25 14.5C25 15.125 24.7812 15.6562 24.3438 16.0938C23.9062 16.5312 23.375 16.75 22.75 16.75C22.35 16.75 21.9844 16.6562 21.6531 16.4688C21.3219 16.2812 21.0562 16.0312 20.8562 15.7188L19.3375 16.225C19.4125 16.7125 19.3812 17.1969 19.2437 17.6781C19.1062 18.1594 18.8625 18.6 18.5125 19L19.5813 20.3125C19.7188 20.25 19.8625 20.2031 20.0125 20.1719C20.1625 20.1406 20.325 20.125 20.5 20.125C21.125 20.125 21.6562 20.3438 22.0938 20.7812C22.5312 21.2188 22.75 21.75 22.75 22.375C22.75 23 22.5312 23.5312 22.0938 23.9688C21.6562 24.4062 21.125 24.625 20.5 24.625C19.875 24.625 19.3438 24.4062 18.9062 23.9688C18.4688 23.5312 18.25 23 18.25 22.375C18.25 22.125 18.2906 21.8844 18.3719 21.6531C18.4531 21.4219 18.5625 21.2125 18.7 21.025L17.6313 19.6938C17.1188 19.9813 16.5719 20.125 15.9906 20.125C15.4094 20.125 14.8625 19.9813 14.35 19.6938L13.3 21.025C13.4375 21.2125 13.5469 21.4219 13.6281 21.6531C13.7094 21.8844 13.75 22.125 13.75 22.375C13.75 23 13.5312 23.5312 13.0938 23.9688C12.6562 24.4062 12.125 24.625 11.5 24.625ZM9.25 15.25C9.4625 15.25 9.64062 15.1781 9.78437 15.0344C9.92812 14.8906 10 14.7125 10 14.5C10 14.2875 9.92812 14.1094 9.78437 13.9656C9.64062 13.8219 9.4625 13.75 9.25 13.75C9.0375 13.75 8.85938 13.8219 8.71563 13.9656C8.57188 14.1094 8.5 14.2875 8.5 14.5C8.5 14.7125 8.57188 14.8906 8.71563 15.0344C8.85938 15.1781 9.0375 15.25 9.25 15.25ZM11.5 23.125C11.7125 23.125 11.8906 23.0531 12.0344 22.9094C12.1781 22.7656 12.25 22.5875 12.25 22.375C12.25 22.1625 12.1781 21.9844 12.0344 21.8406C11.8906 21.6969 11.7125 21.625 11.5 21.625C11.2875 21.625 11.1094 21.6969 10.9656 21.8406C10.8219 21.9844 10.75 22.1625 10.75 22.375C10.75 22.5875 10.8219 22.7656 10.9656 22.9094C11.1094 23.0531 11.2875 23.125 11.5 23.125ZM16 10.375C16.2125 10.375 16.3906 10.3031 16.5344 10.1594C16.6781 10.0156 16.75 9.8375 16.75 9.625C16.75 9.4125 16.6781 9.23438 16.5344 9.09063C16.3906 8.94688 16.2125 8.875 16 8.875C15.7875 8.875 15.6094 8.94688 15.4656 9.09063C15.3219 9.23438 15.25 9.4125 15.25 9.625C15.25 9.8375 15.3219 10.0156 15.4656 10.1594C15.6094 10.3031 15.7875 10.375 16 10.375ZM16 18.625C16.525 18.625 16.9688 18.4438 17.3313 18.0813C17.6938 17.7188 17.875 17.275 17.875 16.75C17.875 16.225 17.6938 15.7812 17.3313 15.4187C16.9688 15.0562 16.525 14.875 16 14.875C15.475 14.875 15.0312 15.0562 14.6687 15.4187C14.3062 15.7812 14.125 16.225 14.125 16.75C14.125 17.275 14.3062 17.7188 14.6687 18.0813C15.0312 18.4438 15.475 18.625 16 18.625ZM20.5 23.125C20.7125 23.125 20.8906 23.0531 21.0344 22.9094C21.1781 22.7656 21.25 22.5875 21.25 22.375C21.25 22.1625 21.1781 21.9844 21.0344 21.8406C20.8906 21.6969 20.7125 21.625 20.5 21.625C20.2875 21.625 20.1094 21.6969 19.9656 21.8406C19.8219 21.9844 19.75 22.1625 19.75 22.375C19.75 22.5875 19.8219 22.7656 19.9656 22.9094C20.1094 23.0531 20.2875 23.125 20.5 23.125ZM22.75 15.25C22.9625 15.25 23.1406 15.1781 23.2844 15.0344C23.4281 14.8906 23.5 14.7125 23.5 14.5C23.5 14.2875 23.4281 14.1094 23.2844 13.9656C23.1406 13.8219 22.9625 13.75 22.75 13.75C22.5375 13.75 22.3594 13.8219 22.2156 13.9656C22.0719 14.1094 22 14.2875 22 14.5C22 14.7125 22.0719 14.8906 22.2156 15.0344C22.3594 15.1781 22.5375 15.25 22.75 15.25Z" fill="#F8F7FF"/>
</svg>
